<?xml version="1.0" encoding="utf-8"?>
<!-- Generator: Adobe Illustrator 21.0.0, SVG Export Plug-In . SVG Version: 6.00 Build 0)  -->
<svg version="1.1" id="Layer_1" xmlns="http://www.w3.org/2000/svg" xmlns:xlink="http://www.w3.org/1999/xlink" x="0px" y="0px"
	 viewBox="0 0 1000 86" style="enable-background:new 0 0 1000 86;" xml:space="preserve">
<style type="text/css">
	.st0{fill:#0000FF;}
	.st1{fill:#FFFFFF;}
	.st2{font-family:'Lato-Regular';}
	.st3{font-size:12px;}
	.st4{font-family:'Lato-Bold';}
	.st5{font-size:22px;}
</style>
<rect class="st0" width="1000" height="86"/>
<path class="st1" d="M48.8,50.7c-10,2.7-17.9-3.6-20.1-10.8c-2.3-7.7,1.3-15.9,8.6-19.3c7.1-3.3,16-1.3,20.9,6.7
	c0.9-4.9,3.1-8.7,7.2-11.4c4.1-2.7,8.6-3.3,13.3-2c7.2,2.1,12,9,11.6,16.5c-0.5,7-5.7,14-14.8,15c2.9,3.3,4.5,7.1,4.4,11.5
	c-0.1,4.4-1.8,8.2-4.9,11.2c-5,4.9-12.8,5.9-19,2.5C49.1,66.8,46.7,60.1,48.8,50.7z M48.2,35.7c0,2,0.5,3.8,1.9,5.1
	c1.7,1.7,3.7,1.3,4.7-0.9c1.1-2.3,0.3-5.9-1.6-7.6c-0.2-0.2-0.4-0.5-0.6-0.7c-0.1,0.1-0.1,0.2-0.2,0.3c0.7,2.2,0.5,3.8-0.8,4.6
	C50.7,37.1,49.7,36.9,48.2,35.7z M64,32.6c0.1,1.9,0.5,3.6,1.7,4.9c1.8,2,4.2,1.5,5-1c0.9-2.6,0.3-4.9-1.4-7c-0.3-0.3-0.7-0.6-1.2-1
	c0.9,2.2,0.6,3.9-0.6,4.8C66.6,34.1,65.6,33.9,64,32.6z M76.6,55.1c-0.2-0.1-0.6-0.6-1-0.7c-0.8,0-0.8,0.6-0.8,1.3
	c0.5,4.2-2.7,9.1-6.6,10.2c-0.7,0.2-1.3,0.4-1,1.3c0.3,0.8,1,0.7,1.6,0.5C73.5,66.4,77.4,60.3,76.6,55.1z M67.2,48.3
	c-1.2-0.2-2.3,0.3-3.2,1.4c-0.4,0.5-0.4,1.1,0.2,1.5c0.6,0.4,1,0,1.3-0.5C66,49.8,66.6,49,67.2,48.3z M57.4,50.3
	c1,0,1.8,0.4,2.5,1.2c0.2,0.3,0.8,0.4,1.2,0.4c0.2,0,0.6-0.5,0.5-0.7c-0.1-0.4-0.4-0.9-0.7-1C59.8,49.5,58.6,49.5,57.4,50.3z"/>
<g>
	<text transform="matrix(1 0 0 1 730.875 61.3814)" class="st1 st2 st3">Northern Monkey Creative Media Ltd</text>
	<text transform="matrix(1 0 0 1 730.875 41.3814)" class="st1 st4 st5">Monkey Budget Planner</text>
</g>
</svg>
