<?xml version="1.0" encoding="utf-8"?>
<!-- Generator: Adobe Illustrator 21.0.0, SVG Export Plug-In . SVG Version: 6.00 Build 0)  -->
<svg version="1.1" id="Layer_1" xmlns="http://www.w3.org/2000/svg" xmlns:xlink="http://www.w3.org/1999/xlink" x="0px" y="0px"
	 viewBox="0 0 62.2 59.4" style="enable-background:new 0 0 62.2 59.4;" xml:space="preserve">
<style type="text/css">
	.st0{fill:#BCBCBC;}
</style>
<path class="st0" d="M20.8,37.4C10.8,40,2.8,33.8,0.7,26.6C-1.6,18.9,2,10.7,9.2,7.3c7.1-3.3,16-1.3,20.9,6.7
	c0.9-4.9,3.1-8.7,7.2-11.4c4.1-2.7,8.6-3.3,13.3-2c7.2,2.1,12,9,11.6,16.5c-0.5,7-5.7,14-14.8,15c2.9,3.3,4.5,7.1,4.4,11.5
	c-0.1,4.4-1.8,8.2-4.9,11.2c-5,4.9-12.8,5.9-19,2.5C21,53.5,18.6,46.8,20.8,37.4z M20.2,22.4c0,2,0.5,3.8,1.9,5.1
	c1.7,1.7,3.7,1.3,4.7-0.9c1.1-2.3,0.3-5.9-1.6-7.6c-0.2-0.2-0.4-0.5-0.6-0.7c-0.1,0.1-0.1,0.2-0.2,0.3c0.7,2.2,0.5,3.8-0.8,4.6
	C22.6,23.8,21.7,23.6,20.2,22.4z M36,19.3c0.1,1.9,0.5,3.6,1.7,4.9c1.8,2,4.2,1.5,5-1c0.9-2.6,0.3-4.9-1.4-7c-0.3-0.3-0.7-0.6-1.2-1
	c0.9,2.2,0.6,3.9-0.6,4.8C38.5,20.8,37.6,20.6,36,19.3z M48.6,41.8c-0.2-0.1-0.6-0.6-1-0.7c-0.8,0-0.8,0.6-0.8,1.3
	c0.5,4.2-2.7,9.1-6.6,10.2c-0.7,0.2-1.3,0.4-1,1.3c0.3,0.8,1,0.7,1.6,0.5C45.5,53.1,49.4,47,48.6,41.8z M39.2,35
	c-1.2-0.2-2.3,0.3-3.2,1.4c-0.4,0.5-0.4,1.1,0.2,1.5c0.6,0.4,1,0,1.3-0.5C38,36.5,38.6,35.7,39.2,35z M29.4,37c1,0,1.8,0.4,2.5,1.2
	c0.2,0.3,0.8,0.4,1.2,0.4c0.2,0,0.6-0.5,0.5-0.7c-0.1-0.4-0.4-0.9-0.7-1C31.7,36.2,30.5,36.2,29.4,37z"/>
</svg>
